<?xml version="1.0" encoding="utf-8"?>
<svg xmlns="http://www.w3.org/2000/svg" viewBox="0 0 250.00000000000003 127.94205179924867"><defs id="SvgjsDefs1732"></defs><g id="SvgjsG1733" featurekey="symbolFeature-0" transform="matrix(1.290909478634873,0,0,1.290909478634873,60.95292439777018,-26.128224226973863)" fill="#0a0a0a"><path xmlns="http://www.w3.org/2000/svg" fill="#0a0a0a" d="M52.468,26.445H33.471c9.062,2.532,28.78,22.188,28.78,41.485c0,0-1.602,12.827,14.178,11.766V55.677  C65.812,55.677,52.468,31.315,52.468,26.445z M80.088,29.549c-1.47,0.4-2.28,2.128-1.809,3.858c0.471,1.73,2.045,2.808,3.516,2.407  c1.471-0.4,2.281-2.127,1.81-3.858C83.133,30.227,81.559,29.149,80.088,29.549z M23.312,43.656c-7.163,0-8.636,5.065-8.636,5.065  v16.948c0,14.221,14.416,14.026,14.416,14.026V67.812c0,0,4.233-5.154,4.233-12.135C33.324,48.696,30.475,43.656,23.312,43.656z   M17.17,33.463c1.615-2.097,3.703-3.84,6.05-5.131c-2.421,1.146-4.643,2.771-6.429,4.819c-0.894,1.022-1.681,2.143-2.339,3.341  c-0.329,0.599-0.626,1.217-0.886,1.854c-0.13,0.318-0.25,0.641-0.36,0.969c-0.069,0.211-0.133,0.416-0.192,0.632  c-0.02,0.001-0.04,0.003-0.06,0.004c-0.139,0.012-0.277,0.028-0.414,0.048c-0.274,0.039-0.546,0.092-0.814,0.159  c-0.537,0.133-1.064,0.319-1.569,0.561c-1.012,0.48-1.933,1.2-2.643,2.095c-0.715,0.893-1.214,1.941-1.528,3.017  c-0.316,1.078-0.458,2.186-0.496,3.28l-0.031,0.901l0.967,0.035l6.498,0.233v-2.337l-5.565,0.199  c0.021-0.644,0.09-1.281,0.224-1.899c0.199-0.926,0.548-1.809,1.074-2.575c0.524-0.767,1.228-1.411,2.055-1.88  c0.413-0.235,0.854-0.429,1.312-0.578c0.229-0.075,0.462-0.138,0.697-0.189c0.118-0.025,0.235-0.048,0.353-0.067  c0.113-0.018,0.244-0.034,0.335-0.042l0.417-0.035l0.058-0.373c0.044-0.286,0.122-0.617,0.204-0.924  c0.083-0.313,0.179-0.625,0.284-0.934c0.209-0.618,0.457-1.226,0.737-1.82C15.668,35.64,16.362,34.51,17.17,33.463z M94.539,34.899  l-0.016-0.624l-0.562,0.037c-1.069,0.069-2.14,0.163-3.209,0.227c-0.535,0.035-1.07,0.065-1.605,0.083  c-0.458,0.018-0.916,0.026-1.375,0.03c-0.029-1.231-0.25-2.475-0.77-3.629c-0.546-1.229-1.434-2.317-2.507-3.153  c-0.853-0.667-1.811-1.171-2.807-1.558l-0.41-1.059c-0.189-0.492-0.4-1.007-0.669-1.507c-0.268-0.5-0.604-0.989-1.009-1.393  c-0.404-0.406-0.866-0.719-1.338-0.956c-0.473-0.238-0.958-0.409-1.444-0.547c0.398,0.312,0.773,0.646,1.09,1.011  c0.317,0.364,0.57,0.757,0.736,1.165c0.319,0.773,0.351,1.601,0.338,2.507c-0.008-0.002-0.017-0.004-0.025-0.005  c-0.328-0.066-0.659-0.119-0.992-0.165c-0.107-0.015-0.217-0.026-0.325-0.039c-0.029-0.165-0.062-0.327-0.104-0.488  c-0.096-0.376-0.218-0.747-0.372-1.109c-0.311-0.721-0.753-1.411-1.346-1.978c-0.587-0.57-1.322-0.993-2.089-1.232  c-0.768-0.238-1.562-0.303-2.312-0.268c-0.773,0.041-1.543,0.208-2.258,0.537c-0.713,0.329-1.337,0.835-1.813,1.428  c-0.47,0.601-0.807,1.276-1.016,1.973c-0.107,0.347-0.187,0.7-0.237,1.055c-0.053,0.355-0.076,0.71-0.067,1.069l0.086,0.006  c-0.006,0.038-0.008,0.06-0.008,0.06s2.272,1.953,5.648,1.953c2.29,0,3.791-0.856,4.557-1.45l0.588,0.003  c0.123,0,0.287,0.008,0.434,0.017c0.15,0.009,0.302,0.021,0.454,0.035c0.303,0.028,0.607,0.066,0.91,0.109  c0.607,0.087,1.209,0.208,1.801,0.365c1.18,0.315,2.323,0.758,3.359,1.381c1.034,0.619,1.951,1.461,2.562,2.528  c0.617,1.062,0.899,2.32,0.889,3.571l-0.002,0.235l0.056-0.034c0.021,0.272,0.213,1.679,1.821,1.679h2.795  c0,0,0.565,0.097,1.012,0.529c-0.069,0.337-0.143,0.689-0.224,1.021c-0.138,0.568-0.301,1.136-0.495,1.681  c-0.158,0.438-0.337,0.871-0.54,1.285c-0.501,0.02-1.002,0.043-1.504,0.073l-0.948,0.054c-0.158,0.007-0.316,0.021-0.475,0.033  l-0.237,0.018l-0.106,0.007l-0.107,0.003c-0.294,0.006-0.594-0.014-0.888-0.05c-0.294-0.036-0.583-0.097-0.854-0.197  c-0.268-0.101-0.523-0.234-0.716-0.436c-0.195-0.199-0.322-0.466-0.361-0.773l-0.156,0.004c-0.043,0.324,0.024,0.695,0.22,0.996  c0.193,0.302,0.474,0.539,0.773,0.711c0.606,0.343,1.266,0.511,1.937,0.591l0.129,0.013l0.13,0.009l0.237,0.018  c0.158,0.011,0.316,0.025,0.475,0.033l0.948,0.052c0.122,0.007,0.244,0.013,0.366,0.019c-0.005,0.302-0.038,0.61-0.106,0.904  c-0.113,0.487-0.321,0.952-0.642,1.35c-0.317,0.399-0.751,0.723-1.251,0.948c-0.499,0.228-1.057,0.359-1.626,0.425  c0.569,0.064,1.157,0.065,1.744-0.053c0.586-0.117,1.172-0.363,1.674-0.758c0.503-0.393,0.908-0.92,1.194-1.499  c0.195-0.399,0.34-0.815,0.438-1.252c0.035,0.001,0.071,0.003,0.106,0.004l0.341,0.013l0.203-0.326  c0.345-0.551,0.632-1.132,0.871-1.727c0.24-0.595,0.434-1.204,0.588-1.819c0.156-0.616,0.263-1.241,0.334-1.868  C94.528,36.173,94.555,35.559,94.539,34.899z"></path></g><g id="SvgjsG1734" featurekey="nameFeature-0" transform="matrix(0.5104405721495474,0,0,0.5104405721495474,-0.32668214142157326,91.5689140842592)" fill="#0a0a0a"><path d="M16.32 40 l-5.4 0 l0 -14.08 l-10.28 -14.4 l6.56 0 l6.44 9 l6.44 -9 l6.52 0 l-10.28 14.4 l0 14.08 z M50.047 40 l-18.4 0 l0 -28.48 l18.76 0 l0 5.2 l-13.4 0 l0 4.2 l11.68 0 l0 5.32 l-11.68 0 l0 8.48 l13.04 0 l0 5.28 z M66.934 40.24 c-0.92 0 -1.88 -0.12 -2.88 -0.32 c-2.96 -0.6 -5.84 -2.04 -8.36 -4.24 l-0.76 -0.68 l3.52 -4 l0.76 0.68 c1.84 1.6 3.88 2.68 5.88 3.08 l0.04 0 c0.6 0.12 1.2 0.2 1.8 0.2 c1 0 1.92 -0.2 2.68 -0.56 c0.96 -0.4 2.08 -1.28 2.08 -2.92 c0 -0.88 -0.44 -1.56 -1.36 -2.12 c-1.12 -0.68 -2.64 -1.04 -3.72 -1.24 c-0.48 -0.08 -4.56 -0.92 -6.44 -1.96 c-1.24 -0.76 -2.2 -1.72 -2.88 -2.84 c-0.68 -1.16 -1 -2.44 -1 -3.84 c0 -1.52 0.48 -3.04 1.4 -4.44 c0.88 -1.16 2.08 -2.12 3.52 -2.8 s3.04 -1.04 4.76 -1.04 c0.68 0 1.4 0.08 2.12 0.16 c2.64 0.48 5.24 1.68 7.52 3.6 l0.76 0.64 l-3.4 4.12 l-0.76 -0.64 c-2.6 -2.12 -4.84 -2.6 -6.28 -2.6 c-0.92 0 -1.76 0.2 -2.48 0.52 c-1.12 0.52 -1.84 1.48 -1.84 2.44 c0 0.88 0.32 1.44 1.08 1.96 s1.92 0.92 3.76 1.32 c0.24 0.04 0.56 0.12 0.88 0.2 c1.68 0.32 3.92 0.8 5.48 1.72 c1.36 0.72 2.4 1.72 3.12 2.88 s1.08 2.52 1.08 3.96 c0 1.8 -0.48 3.4 -1.44 4.76 c-0.84 1.16 -2.08 2.16 -3.72 2.96 c-1.4 0.72 -2.96 1.04 -4.92 1.04 z M104.781 40 l-5.36 0 l0 -13.8 l-11.56 0 l0 13.8 l-5.36 0 l0 -28.48 l5.36 0 l0 9.44 l11.56 0 l0 -9.44 l5.36 0 l0 28.48 z M117.94800000000001 40 l-5.36 0 l0 -28.48 l5.36 0 l0 28.48 z M139.79500000000002 40 l-4.84 0 l-11 -28.48 l5.76 0 l7.64 19.88 l7.68 -19.88 l5.72 0 z M161.722 40 l-5.36 0 l0 -28.48 l5.36 0 l0 28.48 z M179.769 40.24 c-0.92 0 -1.88 -0.12 -2.88 -0.32 c-2.96 -0.6 -5.84 -2.04 -8.36 -4.24 l-0.76 -0.68 l3.52 -4 l0.76 0.68 c1.84 1.6 3.88 2.68 5.88 3.08 l0.04 0 c0.6 0.12 1.2 0.2 1.8 0.2 c1 0 1.92 -0.2 2.68 -0.56 c0.96 -0.4 2.08 -1.28 2.08 -2.92 c0 -0.88 -0.44 -1.56 -1.36 -2.12 c-1.12 -0.68 -2.64 -1.04 -3.72 -1.24 c-0.48 -0.08 -4.56 -0.92 -6.44 -1.96 c-1.24 -0.76 -2.2 -1.72 -2.88 -2.84 c-0.68 -1.16 -1 -2.44 -1 -3.84 c0 -1.52 0.48 -3.04 1.4 -4.44 c0.88 -1.16 2.08 -2.12 3.52 -2.8 s3.04 -1.04 4.76 -1.04 c0.68 0 1.4 0.08 2.12 0.16 c2.64 0.48 5.24 1.68 7.52 3.6 l0.76 0.64 l-3.4 4.12 l-0.76 -0.64 c-2.6 -2.12 -4.84 -2.6 -6.28 -2.6 c-0.92 0 -1.76 0.2 -2.48 0.52 c-1.12 0.52 -1.84 1.48 -1.84 2.44 c0 0.88 0.32 1.44 1.08 1.96 s1.92 0.92 3.76 1.32 c0.24 0.04 0.56 0.12 0.88 0.2 c1.68 0.32 3.92 0.8 5.48 1.72 c1.36 0.72 2.4 1.72 3.12 2.88 s1.08 2.52 1.08 3.96 c0 1.8 -0.48 3.4 -1.44 4.76 c-0.84 1.16 -2.08 2.16 -3.72 2.96 c-1.4 0.72 -2.96 1.04 -4.92 1.04 z M217.61599999999999 40 l-5.36 0 l0 -13.8 l-11.56 0 l0 13.8 l-5.36 0 l0 -28.48 l5.36 0 l0 9.44 l11.56 0 l0 -9.44 l5.36 0 l0 28.48 z M244.26999999999998 40.24 c-0.92 0 -1.88 -0.12 -2.88 -0.32 c-2.96 -0.6 -5.84 -2.04 -8.36 -4.24 l-0.76 -0.68 l3.52 -4 l0.76 0.68 c1.84 1.6 3.88 2.68 5.88 3.08 l0.04 0 c0.6 0.12 1.2 0.2 1.8 0.2 c1 0 1.92 -0.2 2.68 -0.56 c0.96 -0.4 2.08 -1.28 2.08 -2.92 c0 -0.88 -0.44 -1.56 -1.36 -2.12 c-1.12 -0.68 -2.64 -1.04 -3.72 -1.24 c-0.48 -0.08 -4.56 -0.92 -6.44 -1.96 c-1.24 -0.76 -2.2 -1.72 -2.88 -2.84 c-0.68 -1.16 -1 -2.44 -1 -3.84 c0 -1.52 0.48 -3.04 1.4 -4.44 c0.88 -1.16 2.08 -2.12 3.52 -2.8 s3.04 -1.04 4.76 -1.04 c0.68 0 1.4 0.08 2.12 0.16 c2.64 0.48 5.24 1.68 7.52 3.6 l0.76 0.64 l-3.4 4.12 l-0.76 -0.64 c-2.6 -2.12 -4.84 -2.6 -6.28 -2.6 c-0.92 0 -1.76 0.2 -2.48 0.52 c-1.12 0.52 -1.84 1.48 -1.84 2.44 c0 0.88 0.32 1.44 1.08 1.96 s1.92 0.92 3.76 1.32 c0.24 0.04 0.56 0.12 0.88 0.2 c1.68 0.32 3.92 0.8 5.48 1.72 c1.36 0.72 2.4 1.72 3.12 2.88 s1.08 2.52 1.08 3.96 c0 1.8 -0.48 3.4 -1.44 4.76 c-0.84 1.16 -2.08 2.16 -3.72 2.96 c-1.4 0.72 -2.96 1.04 -4.92 1.04 z M282.11699999999996 40 l-5.36 0 l0 -13.8 l-11.56 0 l0 13.8 l-5.36 0 l0 -28.48 l5.36 0 l0 9.44 l11.56 0 l0 -9.44 l5.36 0 l0 28.48 z M295.284 40 l-5.36 0 l0 -28.48 l5.36 0 l0 28.48 z M312.65100000000007 40 l-9.56 0 l0 -28.48 l9.56 0 c8.04 0 14.6 6.4 14.6 14.24 s-6.56 14.24 -14.6 14.24 z M308.41100000000006 34.76 l4.24 0 c5.12 0 9.28 -4.04 9.28 -9 s-4.16 -9 -9.28 -9 l-4.24 0 l0 18 z M341.5780000000001 40 l-9.56 0 l0 -28.48 l9.56 0 c8.04 0 14.6 6.4 14.6 14.24 s-6.56 14.24 -14.6 14.24 z M337.3380000000001 34.76 l4.24 0 c5.12 0 9.28 -4.04 9.28 -9 s-4.16 -9 -9.28 -9 l-4.24 0 l0 18 z M372.2250000000001 40.4 c-6.12 0 -11.08 -4.96 -11.08 -11.08 l0 -17.8 l5.32 0 l0 17.8 c0 3.2 2.6 5.84 5.76 5.84 c3.2 0 5.76 -2.64 5.76 -5.84 l0 -17.8 l5.36 0 l0 17.8 c0 2.96 -1.16 5.76 -3.24 7.84 c-2.12 2.08 -4.92 3.24 -7.88 3.24 z M403.2320000000001 40.44 c-2 0 -3.96 -0.4 -5.8 -1.16 c-1.76 -0.76 -3.36 -1.84 -4.72 -3.2 c-1.4 -1.36 -2.48 -2.96 -3.2 -4.76 c-0.8 -1.84 -1.2 -3.76 -1.2 -5.8 c0 -8.2 6.72 -14.88 14.92 -14.88 c2.32 0 4.64 0.56 6.68 1.6 c2.04 1 3.88 2.56 5.24 4.4 l0.64 0.8 l-4.28 3.16 l-0.6 -0.8 c-1.8 -2.44 -4.6 -3.84 -7.68 -3.84 c-5.28 0 -9.6 4.28 -9.6 9.56 c0 5.32 4.32 9.64 9.6 9.64 c3.04 0 5.84 -1.4 7.68 -3.84 l0.6 -0.76 l4.24 3.12 l-0.64 0.8 c-1.4 1.88 -3.16 3.36 -5.24 4.4 c-2.04 1.04 -4.32 1.56 -6.64 1.56 z M443.35900000000015 40 l-5.36 0 l0 -13.8 l-11.56 0 l0 13.8 l-5.36 0 l0 -28.48 l5.36 0 l0 9.44 l11.56 0 l0 -9.44 l5.36 0 l0 28.48 z M456.5260000000001 40 l-5.36 0 l0 -28.48 l5.36 0 l0 28.48 z M490.4130000000002 40 l-5.32 0 l0 -19.04 l-7.44 10.16 l-7.4 -10.16 l0 19.04 l-5.32 0 l0 -28.48 l5 0 l7.72 10.6 l7.72 -10.6 l5.04 0 l0 28.48 z"></path></g><g id="SvgjsG1735" featurekey="sloganFeature-0" transform="matrix(0.39879535640364916,0,0,0.39879535640364916,84.19443338767104,119.90233671436067)" fill="#0a0a0a"><path d="M12.4 5.42 l1.5 0 l0 14.58 l-1.66 0 l-8.7 -12.4 l0 12.4 l-1.52 0 l0 -14.58 l1.78 0 l8.6 12.26 l0 -12.26 z M33.046 12.68 c0 1.38 -0.32 2.64 -0.94 3.78 c-0.64 1.14 -1.52 2.04 -2.64 2.7 c-1.14 0.66 -2.38 1 -3.78 1 c-1.02 0 -1.98 -0.2 -2.9 -0.58 c-0.9 -0.38 -1.68 -0.9 -2.32 -1.58 c-0.64 -0.64 -1.14 -1.42 -1.52 -2.34 c-0.36 -0.92 -0.56 -1.88 -0.56 -2.9 c0 -1.38 0.32 -2.64 0.96 -3.78 c0.62 -1.14 1.5 -2.06 2.64 -2.72 c1.12 -0.66 2.38 -0.98 3.76 -0.98 c1.02 0 1.98 0.18 2.9 0.56 c0.9 0.4 1.68 0.92 2.32 1.56 c0.64 0.68 1.16 1.46 1.52 2.36 c0.38 0.92 0.56 1.88 0.56 2.92 z M31.466 12.76 c0 -1.64 -0.6 -3.16 -1.6 -4.26 s-2.5 -1.8 -4.18 -1.8 c-1.08 0 -2.06 0.28 -2.94 0.8 c-0.88 0.56 -1.56 1.28 -2.04 2.18 c-0.48 0.92 -0.72 1.92 -0.72 3 c0 1.62 0.6 3.16 1.6 4.24 c1 1.1 2.5 1.8 4.16 1.8 c1.08 0 2.06 -0.28 2.94 -0.82 c0.9 -0.52 1.58 -1.26 2.06 -2.16 s0.72 -1.9 0.72 -2.98 z M42.292 6.859999999999999 l0 13.14 l-1.52 0 l0 -13.14 l-4.88 0 l0 -1.44 l11.28 0 l0 1.44 l-4.88 0 z M59.224000000000004 6.859999999999999 l0 5.24 l6.86 0 l0 1.4 l-6.86 0 l0 6.5 l-1.54 0 l0 -14.58 l9.04 0 l0 1.44 l-7.5 0 z M84.59 12.68 c0 1.38 -0.32 2.64 -0.94 3.78 c-0.64 1.14 -1.52 2.04 -2.64 2.7 c-1.14 0.66 -2.38 1 -3.78 1 c-1.02 0 -1.98 -0.2 -2.9 -0.58 c-0.9 -0.38 -1.68 -0.9 -2.32 -1.58 c-0.64 -0.64 -1.14 -1.42 -1.52 -2.34 c-0.36 -0.92 -0.56 -1.88 -0.56 -2.9 c0 -1.38 0.32 -2.64 0.96 -3.78 c0.62 -1.14 1.5 -2.06 2.64 -2.72 c1.12 -0.66 2.38 -0.98 3.76 -0.98 c1.02 0 1.98 0.18 2.9 0.56 c0.9 0.4 1.68 0.92 2.32 1.56 c0.64 0.68 1.16 1.46 1.52 2.36 c0.38 0.92 0.56 1.88 0.56 2.92 z M83.01 12.76 c0 -1.64 -0.6 -3.16 -1.6 -4.26 s-2.5 -1.8 -4.18 -1.8 c-1.08 0 -2.06 0.28 -2.94 0.8 c-0.88 0.56 -1.56 1.28 -2.04 2.18 c-0.48 0.92 -0.72 1.92 -0.72 3 c0 1.62 0.6 3.16 1.6 4.24 c1 1.1 2.5 1.8 4.16 1.8 c1.08 0 2.06 -0.28 2.94 -0.82 c0.9 -0.52 1.58 -1.26 2.06 -2.16 s0.72 -1.9 0.72 -2.98 z M99.736 20 l-1.86 0 l-4.32 -5.9 l-2.96 0 l0 5.9 l-1.54 0 l0 -14.58 l5.06 0 c1.72 0 3.1 0.48 3.9 1.28 s1.22 1.8 1.22 2.98 c0 2.46 -1.84 3.88 -4 4.16 z M90.596 6.859999999999999 l0 5.84 l3.38 0 c1.28 0 2.28 -0.36 2.86 -0.94 c0.56 -0.56 0.84 -1.26 0.84 -2.04 c0 -1.44 -0.88 -2.86 -3.66 -2.86 l-3.42 0 z M120.388 20 l0 -6.68 l-8.3 0 l0 6.68 l-1.54 0 l0 -14.58 l1.54 0 l0 6.46 l8.3 0 l0 -6.46 l1.54 0 l0 14.58 l-1.54 0 z M138.154 20 l-1.6 -3.72 l-7.94 0 l-1.6 3.72 l-1.56 0 l6.28 -14.58 l1.74 0 l6.3 14.58 l-1.62 0 z M135.97400000000002 14.879999999999999 l-3.4 -7.88 l-3.38 7.88 l6.78 0 z M153.98 20 l-1.86 0 l-4.32 -5.9 l-2.96 0 l0 5.9 l-1.54 0 l0 -14.58 l5.06 0 c1.72 0 3.1 0.48 3.9 1.28 s1.22 1.8 1.22 2.98 c0 2.46 -1.84 3.88 -4 4.16 z M144.84 6.859999999999999 l0 5.84 l3.38 0 c1.28 0 2.28 -0.36 2.86 -0.94 c0.56 -0.56 0.84 -1.26 0.84 -2.04 c0 -1.44 -0.88 -2.86 -3.66 -2.86 l-3.42 0 z M168.826 20 l-1.86 0 l-4.32 -5.9 l-2.96 0 l0 5.9 l-1.54 0 l0 -14.58 l5.06 0 c1.72 0 3.1 0.48 3.9 1.28 s1.22 1.8 1.22 2.98 c0 2.46 -1.84 3.88 -4 4.16 z M159.686 6.859999999999999 l0 5.84 l3.38 0 c1.28 0 2.28 -0.36 2.86 -0.94 c0.56 -0.56 0.84 -1.26 0.84 -2.04 c0 -1.44 -0.88 -2.86 -3.66 -2.86 l-3.42 0 z M177.892 12.4 l4.66 -6.98 l1.74 0 l-5.64 8.42 l0 6.16 l-1.56 0 l0 -6.14 l-5.64 -8.44 l1.84 0 z M187.39800000000002 6.9399999999999995 c0 -0.94 0.28 -1.42 0.84 -1.42 c0.58 0 0.86 0.48 0.86 1.42 c0 0.14 -0.02 0.34 -0.06 0.58 l-0.46 3.84 l-0.66 0 l-0.48 -3.84 c-0.02 -0.22 -0.04 -0.4 -0.04 -0.58 z M197.78400000000002 20.14 c-1.38 0 -2.7 -0.52 -3.56 -1.28 c-0.9 -0.78 -1.48 -1.82 -1.6 -2.84 l1.44 -0.4 c0.16 0.86 0.6 1.58 1.32 2.18 c0.7 0.6 1.5 0.9 2.4 0.9 c0.84 0 1.62 -0.2 2.24 -0.64 c0.62 -0.42 1.02 -1.14 1.02 -2.02 c0 -1.02 -0.54 -1.68 -1.22 -2.08 c-0.48 -0.28 -0.9 -0.4 -1.38 -0.5 l-1.92 -0.38 c-0.4 -0.08 -0.82 -0.22 -1.28 -0.42 c-0.46 -0.22 -0.86 -0.48 -1.2 -0.82 c-0.68 -0.66 -1.02 -1.5 -1.02 -2.52 c0 -0.8 0.22 -1.52 0.66 -2.14 c0.44 -0.64 1 -1.1 1.7 -1.44 c0.7 -0.32 1.44 -0.48 2.26 -0.48 c3.14 0 4.52 1.94 4.82 3.5 l-1.4 0.44 c-0.24 -1.04 -1.18 -2.52 -3.44 -2.52 c-1.56 -0.04 -3.08 1.06 -3.06 2.58 c0 1.12 0.7 2.02 2.12 2.3 l1.84 0.36 c1.24 0.24 2.2 0.66 2.84 1.28 c0.44 0.4 0.76 0.86 0.96 1.34 c0.2 0.5 0.3 0.94 0.3 1.34 c0.02 2.56 -2.14 4.32 -4.84 4.26 z"></path></g></svg>